<svg xmlns="http://www.w3.org/2000/svg" viewBox="0 0 200 200">
  <defs>
    <radialGradient id="chromeFace" cx=".35" cy=".3" r=".8">
      <stop offset="0" stop-color="#F4F5F6"/>
      <stop offset=".6" stop-color="#D7DADD"/>
      <stop offset="1" stop-color="#4A4E54"/>
    </radialGradient>
    <radialGradient id="redcap" cx=".35" cy=".3" r=".8">
      <stop offset="0" stop-color="#E2231C"/>
      <stop offset="1" stop-color="#9C140F"/>
    </radialGradient>
    <filter id="ds" x="-20%" y="-20%" width="140%" height="140%">
      <feDropShadow dx="0" dy="4" stdDeviation="4" flood-color="#000" flood-opacity=".4"/>
    </filter>
  </defs>
  <g filter="url(#ds)">
    <circle cx="100" cy="100" r="96" fill="#0c0c0d"/>
    <circle cx="100" cy="100" r="72" fill="url(#chromeFace)" stroke="#1B1D20" stroke-width="2"/>
    <g>
      <path d="M100 34 L113 100 L100 166 L87 100 Z" fill="#9CA2A8" stroke="#1B1D20" stroke-width="1.5"/>
      <path d="M100 34 L113 100 L100 166 L87 100 Z" fill="#9CA2A8" stroke="#1B1D20" stroke-width="1.5" transform="rotate(72 100 100)"/>
      <path d="M100 34 L113 100 L100 166 L87 100 Z" fill="#9CA2A8" stroke="#1B1D20" stroke-width="1.5" transform="rotate(144 100 100)"/>
      <path d="M100 34 L113 100 L100 166 L87 100 Z" fill="#9CA2A8" stroke="#1B1D20" stroke-width="1.5" transform="rotate(216 100 100)"/>
      <path d="M100 34 L113 100 L100 166 L87 100 Z" fill="#9CA2A8" stroke="#1B1D20" stroke-width="1.5" transform="rotate(288 100 100)"/>
    </g>
    <circle cx="100" cy="100" r="19" fill="url(#redcap)" stroke="#FFD400" stroke-width="2.5"/>
    <ellipse cx="76" cy="72" rx="22" ry="12" fill="#ffffff" opacity=".35" transform="rotate(-30 76 72)"/>
  </g>
</svg>
