<svg xmlns="http://www.w3.org/2000/svg" viewBox="0 0 200 220">
  <defs>
    <filter id="ds" x="-20%" y="-20%" width="140%" height="140%">
      <feDropShadow dx="0" dy="5" stdDeviation="4" flood-color="#000" flood-opacity=".4"/>
    </filter>
  </defs>
  <g filter="url(#ds)">
    <circle cx="100" cy="110" r="106" fill="#0c0c0d"/>
    <g fill="#050505" stroke="#2a2b2c" stroke-width="1">
      <rect x="94" y="4" width="12" height="22" rx="2"/>
      <rect x="94" y="4" width="12" height="22" rx="2" transform="rotate(22.5 100 110)"/>
      <rect x="94" y="4" width="12" height="22" rx="2" transform="rotate(45 100 110)"/>
      <rect x="94" y="4" width="12" height="22" rx="2" transform="rotate(67.5 100 110)"/>
      <rect x="94" y="4" width="12" height="22" rx="2" transform="rotate(90 100 110)"/>
      <rect x="94" y="4" width="12" height="22" rx="2" transform="rotate(112.5 100 110)"/>
      <rect x="94" y="4" width="12" height="22" rx="2" transform="rotate(135 100 110)"/>
      <rect x="94" y="4" width="12" height="22" rx="2" transform="rotate(157.5 100 110)"/>
      <rect x="94" y="4" width="12" height="22" rx="2" transform="rotate(180 100 110)"/>
      <rect x="94" y="4" width="12" height="22" rx="2" transform="rotate(202.5 100 110)"/>
      <rect x="94" y="4" width="12" height="22" rx="2" transform="rotate(225 100 110)"/>
      <rect x="94" y="4" width="12" height="22" rx="2" transform="rotate(247.5 100 110)"/>
      <rect x="94" y="4" width="12" height="22" rx="2" transform="rotate(270 100 110)"/>
      <rect x="94" y="4" width="12" height="22" rx="2" transform="rotate(292.5 100 110)"/>
      <rect x="94" y="4" width="12" height="22" rx="2" transform="rotate(315 100 110)"/>
      <rect x="94" y="4" width="12" height="22" rx="2" transform="rotate(337.5 100 110)"/>
    </g>
    <circle cx="100" cy="110" r="62" fill="#4A4E54" stroke="#1B1D20" stroke-width="3"/>
    <g stroke="#1B1D20" stroke-width="6" stroke-linecap="round">
      <line x1="100" y1="60" x2="100" y2="160"/>
      <line x1="60" y1="80" x2="140" y2="140"/>
      <line x1="60" y1="140" x2="140" y2="80"/>
    </g>
    <circle cx="100" cy="110" r="15" fill="#1B1D20"/>
  </g>
</svg>
