<svg viewBox="0 0 320 200" xmlns="http://www.w3.org/2000/svg" role="img" aria-hidden="true">
  <rect x="0" y="0" width="320" height="200" fill="none"/>
  <path d="M20 170l10-70 30-20h160l30 20 10 70" fill="none" stroke="currentColor" stroke-width="3" opacity="0.5"/>
  <circle cx="95" cy="120" r="26" fill="currentColor" opacity="0.85"/>
  <path d="M55 188c2-30 18-46 40-46s38 16 40 46" fill="currentColor" opacity="0.85"/>
  <circle cx="160" cy="105" r="30" fill="currentColor"/>
  <path d="M114 188c2-34 20-52 46-52s44 18 46 52" fill="currentColor"/>
  <circle cx="228" cy="122" r="24" fill="currentColor" opacity="0.7"/>
  <path d="M190 188c2-28 16-44 38-44s36 16 38 44" fill="currentColor" opacity="0.7"/>
  <rect x="150" y="60" width="20" height="34" rx="3" fill="#FFD400" transform="rotate(18 160 77)"/>
</svg>
